<?xml version="1.0" encoding="utf-8"?>
<svg xmlns="http://www.w3.org/2000/svg" fill="none" height="365" viewBox="0 0 2162 365" width="2162">
<path d="M142.284 72.0791C73.6009 72.0791 17.9227 127.84 17.9227 196.625C17.9227 244.304 44.6743 285.725 83.9653 306.655C61.1771 298.213 39.7191 282.817 24.9163 260.846C-17.4082 205.074 -3.92281 109.691 63.6791 65.2429C128.02 17.5263 235.567 34.2641 284.675 110.651C337.492 183.53 317.394 303.463 232.163 357.5L202.301 305.733C240.662 284.524 266.644 243.613 266.644 196.625C266.644 127.84 210.966 72.0791 142.284 72.0791Z" fill="#EDEDED"/>
<path clip-rule="evenodd" d="M142.25 272.5C183.947 272.5 217.75 238.697 217.75 197C217.75 155.303 183.947 121.5 142.25 121.5C100.553 121.5 66.75 155.303 66.75 197C66.75 238.697 100.553 272.5 142.25 272.5ZM150.426 211.266C155.25 208.576 161.341 210.306 164.031 215.13L176.577 237.63C179.267 242.453 177.537 248.544 172.714 251.234C167.89 253.924 161.799 252.194 159.11 247.37L146.563 224.87C143.873 220.047 145.603 213.956 150.426 211.266Z" fill="#EDEDED" fill-rule="evenodd"/>
<path d="M2095.55 289V0.132812H2161.96V289H2095.55Z" fill="#EDEDED"/>
<path d="M2001.87 289V0.132812H2068.27V289H2001.87Z" fill="#EDEDED"/>
<path d="M1913.26 185.094C1904.92 189.651 1888.97 193.102 1865.41 195.445C1862.54 195.836 1860.39 196.096 1858.96 196.227C1833.83 198.831 1817.95 202.021 1811.3 205.797C1804.66 209.573 1801.34 215.432 1801.34 223.375C1801.34 231.708 1804.6 238.414 1811.11 243.492C1817.75 248.44 1826.54 250.914 1837.48 250.914C1860.13 250.914 1878.49 245.51 1892.55 234.703C1906.75 223.896 1913.84 209.833 1913.84 192.516C1913.84 190.432 1913.78 188.87 1913.65 187.828C1913.65 186.786 1913.52 185.875 1913.26 185.094ZM1978.49 254.234C1978.49 262.698 1979.27 269.208 1980.84 273.766C1982.4 278.193 1985 281.643 1988.65 284.117V289H1915.02L1911.7 265.367C1900.11 276.044 1887.02 283.922 1872.44 289C1857.85 294.078 1840.99 296.617 1821.85 296.617C1792.16 296.617 1768.79 290.172 1751.73 277.281C1734.68 264.391 1726.15 246.943 1726.15 224.938C1726.15 204.495 1733.83 189.26 1749.2 179.234C1764.56 169.078 1790.93 162.438 1828.3 159.312C1833.24 158.922 1840.15 158.466 1849 157.945C1891.97 154.951 1913.45 146.617 1913.45 132.945C1913.45 124.742 1909.29 118.622 1900.95 114.586C1892.75 110.549 1880.38 108.531 1863.84 108.531C1847.18 108.531 1834.94 111.461 1827.12 117.32C1819.31 123.049 1815.28 132.099 1815.02 144.469L1745.29 144.664V143.883C1745.29 118.492 1755.77 99.1562 1776.73 85.875C1797.7 72.4635 1828.04 65.7578 1867.75 65.7578C1887.28 65.7578 1904.53 67.7109 1919.51 71.6172C1934.61 75.3932 1947.24 81.0573 1957.4 88.6094C1965.08 94.4688 1970.48 101.891 1973.61 110.875C1976.86 119.729 1978.49 133.206 1978.49 151.305V254.234Z" fill="#EDEDED"/>
<path d="M1438.71 289L1351.99 73.375H1423.48L1472.3 222.594L1516.64 73.375H1583.05L1627.58 222.594L1675.82 73.375H1747.89L1661.17 289H1594.77L1549.84 144.664L1504.73 289H1438.71Z" fill="#EDEDED"/>
<path d="M1171.98 181.383C1171.98 200.003 1177.71 214.846 1189.17 225.914C1200.63 236.982 1215.99 242.516 1235.27 242.516C1254.67 242.516 1270.03 237.047 1281.36 226.109C1292.82 215.042 1298.55 200.003 1298.55 180.992C1298.55 162.242 1292.82 147.398 1281.36 136.461C1269.9 125.393 1254.54 119.859 1235.27 119.859C1216.12 119.859 1200.76 125.458 1189.17 136.656C1177.71 147.854 1171.98 162.763 1171.98 181.383ZM1105.58 364.977V73.375H1171.98V95.0547C1180.97 85.8099 1191.78 78.974 1204.41 74.5469C1217.04 69.9896 1231.75 67.7109 1248.55 67.7109C1284.61 67.7109 1313.91 78.2578 1336.44 99.3516C1359.09 120.315 1370.42 147.529 1370.42 180.992C1370.42 214.846 1359.09 242.255 1336.44 263.219C1313.78 284.182 1284.03 294.664 1247.18 294.664C1231.03 294.664 1216.78 292.385 1204.41 287.828C1192.17 283.141 1181.36 276.044 1171.98 266.539V364.977H1105.58Z" fill="#EDEDED"/>
<path d="M736.891 105.797C748.74 93.1667 761.695 83.6615 775.758 77.2812C789.82 70.901 804.859 67.7109 820.875 67.7109C841.708 67.7109 859.547 71.6823 874.391 79.625C889.365 87.5677 899.846 98.5703 905.836 112.633C916.643 98.1797 929.729 87.112 945.094 79.4297C960.458 71.6172 977.06 67.7109 994.898 67.7109C1013 67.7109 1028.88 70.7057 1042.55 76.6953C1056.23 82.6849 1066.77 91.2135 1074.2 102.281C1078.75 109.182 1082.01 117.32 1083.96 126.695C1085.91 135.94 1086.89 150.458 1086.89 170.25V289H1020.09V184.508C1020.09 160.419 1016.58 143.883 1009.55 134.898C1002.65 125.914 990.602 121.422 973.414 121.422C954.013 121.422 938.714 126.891 927.516 137.828C916.448 148.635 910.914 163.544 910.914 182.555V289H846.07V184.508C846.07 160.419 842.555 143.883 835.523 134.898C828.622 125.914 816.578 121.422 799.391 121.422C779.99 121.422 764.69 126.891 753.492 137.828C742.424 148.635 736.891 163.544 736.891 182.555V289H670.094V73.375H736.891V105.797Z" fill="#EDEDED"/>
<path d="M585.977 185.094C577.643 189.651 561.693 193.102 538.125 195.445C535.26 195.836 533.112 196.096 531.68 196.227C506.549 198.831 490.664 202.021 484.023 205.797C477.383 209.573 474.062 215.432 474.062 223.375C474.062 231.708 477.318 238.414 483.828 243.492C490.469 248.44 499.258 250.914 510.195 250.914C532.852 250.914 551.211 245.51 565.273 234.703C579.466 223.896 586.562 209.833 586.562 192.516C586.562 190.432 586.497 188.87 586.367 187.828C586.367 186.786 586.237 185.875 585.977 185.094ZM651.211 254.234C651.211 262.698 651.992 269.208 653.555 273.766C655.117 278.193 657.721 281.643 661.367 284.117V289H587.734L584.414 265.367C572.826 276.044 559.74 283.922 545.156 289C530.573 294.078 513.711 296.617 494.57 296.617C464.883 296.617 441.51 290.172 424.453 277.281C407.396 264.391 398.867 246.943 398.867 224.938C398.867 204.495 406.549 189.26 421.914 179.234C437.279 169.078 463.646 162.438 501.016 159.312C505.964 158.922 512.865 158.466 521.719 157.945C564.688 154.951 586.172 146.617 586.172 132.945C586.172 124.742 582.005 118.622 573.672 114.586C565.469 110.549 553.099 108.531 536.562 108.531C519.896 108.531 507.656 111.461 499.844 117.32C492.031 123.049 487.995 132.099 487.734 144.469L418.008 144.664V143.883C418.008 118.492 428.49 99.1562 449.453 85.875C470.417 72.4635 500.755 65.7578 540.469 65.7578C560 65.7578 577.253 67.7109 592.227 71.6172C607.331 75.3932 619.961 81.0573 630.117 88.6094C637.799 94.4688 643.203 101.891 646.328 110.875C649.583 119.729 651.211 133.206 651.211 151.305V254.234Z" fill="#EDEDED"/>
</svg>